<?xml version="1.0" standalone="no"?>
<!DOCTYPE svg PUBLIC "-//W3C//DTD SVG 20010904//EN"
 "http://www.w3.org/TR/2001/REC-SVG-20010904/DTD/svg10.dtd">
<svg version="1.0" xmlns="http://www.w3.org/2000/svg"
 width="70.000000pt" height="70.000000pt" viewBox="0 0 70.000000 70.000000"
 preserveAspectRatio="xMidYMid meet">
<metadata>
Created by potrace 1.14, written by Peter Selinger 2001-2017
</metadata>
<g transform="translate(0.000000,70.000000) scale(0.100000,-0.100000)"
fill="#000000" stroke="none">
<path d="M400 690 c13 -8 13 -11 1 -22 -11 -11 -13 -11 -6 1 6 10 4 12 -4 7
-9 -6 -8 -13 6 -29 10 -11 13 -17 6 -14 -15 9 -14 -32 1 -52 8 -11 8 -13 -1
-7 -7 4 -13 3 -13 -3 0 -5 6 -12 13 -14 7 -4 6 -6 -5 -6 -9 -1 -19 -7 -22 -13
-3 -7 -3 -2 0 12 6 24 6 24 -10 5 -11 -14 -15 -16 -16 -6 0 11 -4 9 -15 -5
-12 -15 -14 -15 -9 -2 5 14 0 16 -25 13 -20 -3 -31 0 -31 8 0 7 -4 6 -10 -3
-5 -8 -10 -11 -10 -6 0 6 -7 1 -16 -10 -8 -10 -13 -13 -9 -6 3 7 0 12 -8 12
-8 0 -18 -7 -21 -15 -5 -13 -10 -14 -27 -4 -12 6 -19 7 -15 1 3 -5 -2 -16 -11
-23 -14 -12 -16 -12 -9 1 4 9 1 8 -7 -2 -8 -10 -20 -18 -28 -18 -11 0 -11 -2
1 -10 13 -8 12 -10 -2 -10 -10 0 -18 -5 -18 -11 0 -6 -6 -9 -14 -6 -10 4 -12
0 -9 -14 3 -11 0 -19 -7 -19 -7 0 -10 -7 -7 -15 4 -8 1 -17 -5 -21 -7 -5 -8
-2 -3 6 5 9 4 11 -4 6 -9 -6 -9 -11 1 -24 10 -12 10 -14 1 -8 -8 4 -13 2 -13
-4 0 -6 -4 -9 -9 -6 -4 3 -9 -35 -10 -85 -1 -61 1 -89 8 -84 8 4 8 -2 1 -19
-9 -23 -6 -29 11 -28 3 0 11 -8 18 -20 10 -16 10 -19 -1 -12 -10 6 -11 5 -1
-8 7 -8 9 -19 5 -24 -4 -4 0 -3 9 4 14 11 17 8 23 -19 5 -26 9 -29 20 -20 9 8
16 8 20 2 4 -5 1 -13 -6 -17 -24 -15 34 -22 188 -23 126 -1 153 2 158 14 6 16
33 20 60 9 9 -3 13 -10 10 -15 -3 -6 30 -9 83 -7 l88 3 0 38 c1 30 -2 36 -15
32 -11 -4 -10 -2 3 9 9 7 17 16 17 20 0 3 -8 6 -17 7 -15 0 -15 2 2 9 19 8 19
9 -3 9 -15 1 -21 5 -16 13 4 7 3 8 -5 4 -6 -4 -14 0 -17 9 -5 13 -9 13 -22 3
-12 -10 -14 -10 -8 0 4 7 2 12 -4 12 -6 0 -8 5 -4 12 5 7 2 9 -9 5 -11 -4 -14
-2 -10 9 3 8 -3 21 -13 30 -18 14 -18 14 1 8 18 -6 19 -5 5 10 -18 18 -15 90
3 79 6 -3 7 -1 3 6 -4 6 -11 9 -16 6 -4 -3 -10 2 -13 10 -4 9 -1 12 9 8 9 -3
12 0 9 8 -10 28 -12 90 -3 95 5 3 4 12 -3 20 -9 11 -8 14 7 14 16 0 16 2 4 10
-21 13 -22 70 -2 70 13 0 12 3 -4 16 -10 8 -13 13 -6 9 6 -3 12 -2 12 4 0 5
-6 12 -12 14 -10 4 -9 6 1 6 11 1 11 4 1 16 -10 12 -9 15 6 16 11 0 14 3 7 6
-7 2 -13 9 -13 14 0 6 5 7 12 3 7 -4 8 -3 4 5 -4 6 -12 9 -17 6 -5 -4 -9 -1
-9 4 0 7 -32 11 -87 11 -59 0 -83 -3 -73 -10z m-87 -324 c-3 -4 5 -5 17 -1 15
5 20 4 16 -4 -4 -6 0 -14 8 -17 9 -3 16 -12 16 -20 0 -8 7 -14 15 -14 8 0 15
-5 15 -11 0 -5 -6 -7 -12 -3 -7 4 -4 -3 7 -16 11 -13 14 -20 8 -16 -7 4 -13 3
-13 -1 0 -5 6 -15 13 -22 10 -11 9 -12 -2 -6 -11 6 -13 3 -9 -13 4 -14 2 -20
-5 -15 -7 4 -8 0 -3 -13 4 -10 4 -16 1 -12 -8 8 -46 -23 -39 -33 2 -4 -4 -5
-15 -2 -10 3 -22 0 -25 -6 -5 -8 -16 -6 -36 4 -27 14 -29 14 -23 -2 3 -10 -5
-4 -18 12 -29 37 -40 45 -53 38 -5 -3 -6 -1 -2 6 4 6 2 19 -6 28 -7 9 -8 14
-2 10 7 -4 14 2 17 13 3 11 1 17 -4 14 -5 -3 -7 5 -5 18 3 13 5 26 5 31 1 4 8
7 16 7 8 0 15 7 15 15 0 8 11 17 25 21 14 3 23 9 21 13 -3 4 11 6 29 6 18 0
31 -4 28 -9z m-292 -219 c-10 -9 -11 -8 -5 6 3 10 9 15 12 12 3 -3 0 -11 -7
-18z"/>
<path d="M570 540 c0 -5 5 -10 11 -10 5 0 7 5 4 10 -3 6 -8 10 -11 10 -2 0 -4
-4 -4 -10z"/>
<path d="M575 421 c-3 -5 -2 -12 3 -15 5 -3 9 1 9 9 0 17 -3 19 -12 6z"/>
</g>
</svg>
